PathFileType	4	(X/Y/Z)	C:\Users\Basilio\Documents\Thesis Gigler\squatting_fais\c3dfiles\075\SLS_front_pre4\markers_experimental.trc
DataRate	CameraRate	NumFrames	NumMarkers	Units	OrigDataRate	OrigDataStartFrame	OrigNumFrames
200.000000	200.000000	4	61	mm	200.000000	500	1334
Frame#	Time	FHD			LBHD			RBHD			C7			T10			CLAV			LSHO			LUUPA			LMUPA			LDUPA			LLEP			LMEP			LRAD			LUL			LRFIN			RSHO			RUPA1			RMUPA			RDUPA			RLEP			RMEP			RRAD			RUL			RUFIN			USACR			LSACR			RSACR			LTHI1			LTHI2			LTHI3			LTHI4			LLFC			LMFC			LTIB1			LTIB2			LTIB3			LTIB4			LLMAL			LMMAL			LHEE			LMT1			LMT2			LMT5			RTHI			RTHI2			RTHI3			RTHI4			RLFC			RMFC			RTIB1			RTIB2			RTIB3			RTIB4			RLMAL			RMMAL			RHEE			RMT1			RMT2			RMT5			RASI			LASI			
		X1	Y1	Z1	X2	Y2	Z2	X3	Y3	Z3	X4	Y4	Z4	X5	Y5	Z5	X6	Y6	Z6	X7	Y7	Z7	X8	Y8	Z8	X9	Y9	Z9	X10	Y10	Z10	X11	Y11	Z11	X12	Y12	Z12	X13	Y13	Z13	X14	Y14	Z14	X15	Y15	Z15	X16	Y16	Z16	X17	Y17	Z17	X18	Y18	Z18	X19	Y19	Z19	X20	Y20	Z20	X21	Y21	Z21	X22	Y22	Z22	X23	Y23	Z23	X24	Y24	Z24	X25	Y25	Z25	X26	Y26	Z26	X27	Y27	Z27	X28	Y28	Z28	X29	Y29	Z29	X30	Y30	Z30	X31	Y31	Z31	X32	Y32	Z32	X33	Y33	Z33	X34	Y34	Z34	X35	Y35	Z35	X36	Y36	Z36	X37	Y37	Z37	X38	Y38	Z38	X39	Y39	Z39	X40	Y40	Z40	X41	Y41	Z41	X42	Y42	Z42	X43	Y43	Z43	X44	Y44	Z44	X45	Y45	Z45	X46	Y46	Z46	X47	Y47	Z47	X48	Y48	Z48	X49	Y49	Z49	X50	Y50	Z50	X51	Y51	Z51	X52	Y52	Z52	X53	Y53	Z53	X54	Y54	Z54	X55	Y55	Z55	X56	Y56	Z56	X57	Y57	Z57	X58	Y58	Z58	X59	Y59	Z59	X60	Y60	Z60	X61	Y61	Z61	

501	2.5	-263.6274719238282	1622.341674804688	-796.6372680664065	-410.023162841797	1505.865478515625	-867.0167236328127	-374.7231750488282	1545.466674804688	-713.4702758789064	-447.6737060546876	1402.20361328125	-804.8985595703127	-525.3684692382814	1088.693481445313	-790.9042968750002	-316.9398498535157	1323.90185546875	-794.4985351562502	-333.6473083496094	1375.375244140625	-928.9702148437502	-185.0065002441407	1285.075805664063	-1013.179016113281	-157.4851684570313	1305.116088867188	-977.4185791015627	-117.7103042602539	1271.571655273438	-1007.134887695313	-38.76923751831055	1254.2705078125	-990.686950683594	-63.1754608154297	1186.252563476563	-945.772399902344	nan	nan	nan	194.0709991455079	1259.28662109375	-874.428161621094	197.4412384033204	1281.212524414063	-769.0410766601565	-351.3301696777344	1380.400268554688	-664.5526123046876	-217.9917602539063	1304.627075195313	-547.4246826171876	-182.3407897949219	1315.995971679688	-579.1326904296876	-150.3496704101563	1288.180419921875	-535.6389770507814	-80.33815765380861	1274.128295898438	-537.7601318359376	-82.97825622558595	1198.775756835938	-557.0879516601564	134.7740936279297	1269.455322265625	-718.0426025390626	156.5056915283203	1276.142211914063	-642.3144531250001	211.7695922851563	1299.816772460938	-741.2457275390626	-535.2135620117189	969.3198242187502	-800.8795166015627	-541.8616333007814	939.5201416015627	-830.2014770507815	-541.6354370117189	936.0507812500002	-773.423034667969	-296.9050903320313	735.4456176757814	-1007.221923828125	-222.229232788086	696.9534301757814	-1003.362915039063	-193.6072845458985	726.3119506835939	-975.5706176757815	-208.0407714843751	638.5065307617189	-1002.855590820313	-151.7107086181641	544.6495971679689	-998.3138427734377	-123.0373306274414	541.9445190429689	-871.8273925781252	-46.97788238525391	461.277801513672	-963.893737792969	-78.50129699707033	402.624969482422	-1019.235900878906	-41.73233032226563	413.2875061035157	-995.4910888671877	-11.07452869415283	338.3385620117188	-968.793395996094	-12.79890060424805	177.1536102294922	-998.1218872070315	0.3877680897712709	201.2162170410157	-913.6804199218752	-61.50483703613283	132.9087677001953	-959.6433105468752	138.2863006591797	166.7657318115235	-903.4920043945315	150.241683959961	166.0770111083985	-950.8817138671877	124.5569381713867	131.6811218261719	-1002.396850585938	-371.7427978515626	702.7493286132814	-623.9303588867189	-312.5631713867188	673.0252685546876	-626.7070312500001	-286.4712219238282	693.1822509765626	-635.3385620117189	-299.4782714843751	589.7601318359376	-638.6317138671876	-251.2418518066407	454.1018066406251	-681.7951660156251	-219.5533447265626	468.1783142089845	-802.3575439453127	-228.6905822753907	318.8700561523438	-770.5191040039065	-297.0069580078126	249.2729949951172	-723.4407348632814	-262.8297424316407	239.1424713134766	-756.9589843750001	-290.8142700195313	208.7918548583985	-800.6077270507815	-391.338836669922	109.2198181152344	-774.2661743164065	-356.9818115234376	137.246566772461	-854.7235107421877	-445.0828552246095	92.43907928466798	-837.571472167969	-242.0841674804688	54.25300979614259	-824.974060058594	-245.8675842285157	57.56907272338869	-782.9390258789065	-288.9609680175782	36.89768981933594	-735.7807617187501	-379.7988281250001	906.9644775390627	-675.2142333984376	-378.8889465332032	923.9427490234377	-926.1361083984377	
502	2.505	-263.0429382324219	1621.096801757813	-797.148864746094	-409.492401123047	1504.900634765625	-867.347106933594	-374.4918518066407	1544.211303710938	-713.5917968750001	-447.312225341797	1401.44091796875	-805.2871704101565	-525.5585327148439	1087.962280273438	-790.8328247070315	-316.7279968261719	1322.95751953125	-794.7663574218752	-333.1206970214844	1374.416870117188	-929.089538574219	-184.4805450439453	1285.040771484375	-1014.539916992188	-157.0600891113282	1304.066650390625	-977.558044433594	-117.1787261962891	1270.105102539063	-1006.347106933594	-37.55333328247071	1253.35986328125	-990.4331054687502	-62.794002532959	1185.295043945313	-946.0451660156252	nan	nan	nan	194.5061187744141	1258.412475585938	-874.3420410156252	197.2281188964844	1280.80517578125	-768.9939575195315	-351.1212463378907	1379.592041015625	-664.8723754882814	-217.8655853271485	1303.95166015625	-547.7030639648439	-182.2004089355469	1315.387939453125	-579.4126586914064	-150.1042633056641	1287.732177734375	-535.7440795898439	-80.06304931640626	1273.648803710938	-537.6954956054689	-82.70245361328126	1198.297241210938	-556.9026489257814	135.0825653076172	1268.616943359375	-717.8112792968751	156.7615203857422	1275.435302734375	-642.1819458007814	212.0701599121094	1299.09619140625	-741.1288452148439	-535.6643676757814	968.6010742187502	-800.7470703125002	-542.1450805664064	938.8118286132815	-829.9785156250002	-542.0533447265626	935.2156982421877	-773.3024902343752	-297.4928894042969	734.7446289062501	-1007.183044433594	-222.6751098632813	696.1432495117189	-1003.204711914063	-194.1083679199219	725.5051269531251	-975.5023193359377	-208.4681549072266	637.8459472656251	-1002.972900390625	-152.0823211669922	543.8723754882814	-998.189392089844	-123.3905258178711	541.1318359375001	-871.7947998046877	-47.45144653320313	460.6219177246095	-963.903747558594	-79.09457397460939	401.8729553222657	-1019.02587890625	-42.17613983154298	412.5409545898439	-995.576599121094	-11.62881469726563	337.5177307128907	-968.8033447265627	-14.78726959228516	176.6694793701172	-998.2153930664065	-0.222246989607811	200.3677368164063	-913.7218017578127	-62.27023696899415	132.2894439697266	-959.8344726562502	137.5958099365235	165.6163940429688	-903.2170410156252	149.4104614257813	164.463607788086	-950.8845214843752	123.6970291137696	130.4967041015625	-1002.341125488281	-371.7818603515626	702.1603393554689	-623.7495117187501	-312.4918823242188	672.6887207031251	-626.6115112304689	-286.5841674804688	692.7395019531251	-635.2727050781251	-299.2458190917969	589.3013305664064	-638.4347534179689	-250.8001098632813	453.8287048339845	-681.8726196289064	-219.1316986083985	467.8878479003907	-802.351257324219	-228.276840209961	318.6818237304688	-770.469177246094	-296.7285461425782	249.1343688964844	-723.5406494140626	-262.5881958007813	238.8963470458985	-757.0381469726564	-290.6228332519532	208.6476593017579	-800.5600585937502	-391.3475646972657	109.1629638671875	-774.2612304687502	-356.9738464355469	137.198974609375	-854.7066040039065	-445.051483154297	92.42116546630861	-837.5612792968752	-242.1871948242188	54.22865295410158	-825.0841064453127	-245.9214782714844	57.59629821777345	-783.0455322265627	-288.9378051757813	36.95288848876954	-735.7822875976564	-380.2412109375001	906.1677246093752	-675.1408081054689	-379.0798950195313	923.1250610351565	-926.038269042969	
503	2.51	-262.4945068359376	1620.026611328125	-797.7907714843752	-409.0377197265626	1503.879516601563	-867.8325805664065	-374.2077941894532	1543.173706054688	-713.7152099609376	-446.9461059570314	1400.645385742188	-805.548278808594	-525.7036743164064	1087.316040039063	-790.7234497070315	-316.4893493652344	1321.82080078125	-795.031921386719	-332.8878479003907	1373.269165039063	-929.404479980469	-184.0823822021485	1284.171997070313	-1014.670715332031	-156.7400054931641	1303.039672851563	-977.6462402343752	-116.8946990966797	1269.16357421875	-1006.407287597656	-37.09851455688477	1252.081909179688	-990.4991455078127	-62.48030853271486	1184.274658203125	-945.6549072265627	nan	nan	nan	194.8866882324219	1257.610107421875	-874.123962402344	198.1261901855469	1279.616943359375	-768.8787841796877	-350.6980895996094	1378.789672851563	-665.0927734375001	-217.6490631103516	1303.46484375	-547.9259643554689	-181.8024597167969	1314.746948242188	-579.2611694335939	-149.9387969970703	1287.205444335938	-535.8690795898439	-79.89310455322267	1273.144897460938	-537.7097167968751	-82.56322479248048	1197.699829101563	-556.6520385742189	135.1890411376953	1268.031372070313	-717.8115844726564	156.9839630126953	1274.737670898438	-642.0287475585939	212.5279388427735	1298.36962890625	-740.8807373046876	-535.6646728515626	967.631286621094	-800.724304199219	-542.5349731445314	938.0325317382815	-829.859558105469	-542.2937011718751	934.5278320312502	-773.155212402344	-297.7733459472657	733.8936767578126	-1007.044372558594	-223.0777587890626	695.3947143554689	-1003.213928222656	-194.6564025878907	724.7889404296876	-975.501159667969	-208.9605102539063	637.0642700195314	-1002.79150390625	-152.3200073242188	543.1693115234376	-998.193786621094	-123.8156051635742	540.3156127929689	-871.7395019531252	-47.88308334350587	459.7777709960939	-963.871765136719	-79.64664459228517	401.0909118652345	-1019.058288574219	-42.68921661376954	411.6617736816407	-995.5308227539065	-12.23966598510743	336.7617187500001	-968.795104980469	-14.27987003326416	175.662353515625	-998.0308837890627	-0.8018049597740176	199.5904693603516	-913.6577148437502	-62.96081542968751	131.6975250244141	-959.8809814453127	136.8896484375	164.4381866455078	-902.9779052734377	149.0511169433594	163.4076538085938	-950.5256347656252	123.1176834106446	129.2822418212891	-1002.158142089844	-371.8442687988282	701.5027465820314	-623.6149291992189	-312.5013122558594	672.1704101562501	-626.5184936523439	-286.6213378906251	692.3076782226564	-635.2828369140626	-299.0183105468751	588.8595581054689	-638.4306030273439	-250.3442535400391	453.535369873047	-681.8897705078126	-218.7732849121094	467.6954040527345	-802.2825317382815	-227.9055480957032	318.3665161132813	-770.4686279296877	-296.5024414062501	248.9945068359376	-723.4592285156251	-262.3273010253907	238.7125396728516	-756.9356689453126	-289.6619567871094	208.3292541503907	-800.0535278320315	-391.2521362304689	109.2076644897461	-774.2747192382815	-356.9205017089844	137.2217254638672	-854.7337036132815	-445.0244750976564	92.46446990966798	-837.5817871093752	-242.0420837402344	54.22423934936525	-825.018005371094	-245.9115753173829	57.64871215820314	-783.043395996094	-288.9056396484376	36.9536476135254	-735.8013305664064	-380.6728210449219	905.5081787109377	-675.1768188476564	-379.4535217285157	922.3528442382815	-925.7156372070315	
504	2.515	-262.0310668945313	1619.166381835938	-798.4492187500002	-408.5389709472657	1502.8046875	-868.3536376953127	-373.5547485351563	1542.4990234375	-714.4402465820314	-446.6444702148439	1399.686645507813	-805.8643188476565	-525.9805297851564	1086.683959960938	-790.6297607421877	-316.3752136230469	1320.734130859375	-795.2988891601565	-332.5261230468751	1372.2548828125	-929.6347656250002	-183.5822143554688	1282.622680664063	-1013.976196289063	-156.3448028564453	1301.835571289063	-977.6106567382815	-116.6292343139649	1268.328857421875	-1007.197509765625	-36.76927947998048	1251.105590820313	-990.292419433594	-62.00241088867189	1183.28076171875	-945.5089111328127	nan	nan	nan	195.2727050781251	1256.75390625	-874.0068359375002	197.9167785644532	1279.137084960938	-768.7626953125002	-350.4195861816407	1377.965698242188	-665.4827270507814	-217.2887268066407	1303.12451171875	-547.9209594726564	-181.5853576660157	1314.111572265625	-579.6036376953126	-149.6860504150391	1286.67333984375	-535.9423217773439	-79.60556793212892	1272.654052734375	-537.7608032226564	-82.3926239013672	1197.016723632813	-556.6079101562501	135.4788208007813	1267.040649414063	-717.6836547851564	157.2407989501953	1273.884643554688	-641.9671630859376	212.6770629882813	1297.49951171875	-740.8320922851564	-535.9285278320314	966.7639770507815	-800.5964965820315	-542.9624633789064	937.1832275390627	-829.7264404296877	-542.6918334960939	933.689147949219	-773.0472412109377	-298.4812927246094	733.1848144531251	-1007.180725097656	-223.7812194824219	694.6058959960939	-1003.282348632813	-195.2536621093751	724.0596313476564	-975.5398559570315	-209.374984741211	636.2625732421876	-1002.775573730469	-152.721435546875	542.4174804687501	-998.157409667969	-124.3345108032227	539.5488891601564	-871.7608032226565	-48.03894805908205	458.7765502929689	-963.5820312500002	-79.97859954833986	400.2197875976564	-1018.96142578125	-43.12735748291016	410.7693176269532	-995.4881591796877	-12.60618495941162	335.9312133789063	-968.613464355469	-15.06064033508301	174.8937072753907	-998.0836181640627	-1.421799421310425	198.7156677246094	-913.6583251953127	-64.04991149902345	131.1899871826172	-959.9373779296877	136.4688415527344	163.1965484619141	-902.6858520507815	148.4826202392578	162.3365325927735	-950.4368286132815	122.4738693237305	127.9277496337891	-1001.916687011719	-371.8783264160157	700.9309692382814	-623.5714111328126	-312.4707946777344	671.6542968750001	-626.3399047851564	-286.6640014648438	691.8737182617189	-635.2308959960939	-298.7944641113282	588.4808959960939	-638.3968505859376	-249.8847045898438	453.2468566894532	-681.8901977539064	-218.3632049560547	467.4534606933595	-802.2770996093752	-227.5470886230469	318.1673278808594	-770.4282226562502	-296.2605895996094	248.8147888183594	-723.4699707031251	-262.0711364746094	238.5369873046876	-756.9982299804689	-290.1894226074219	208.278305053711	-800.4651489257815	-391.1929321289064	109.19775390625	-774.2478637695315	-356.8600158691407	137.2274169921875	-854.713317871094	-445.0401000976564	92.49207305908205	-837.5760498046877	-242.0203857421876	54.21459579467775	-824.9898681640627	-245.8520202636719	57.5687942504883	-783.0007934570315	-288.8960266113282	36.93981552124024	-735.8512573242189	-381.1684265136719	904.6362304687502	-675.1187133789064	-379.9700012207032	921.6123046875002	-925.6777954101565	
